<svg xmlns="http://www.w3.org/2000/svg" viewBox="0 0 200 200" width="200" height="200">
  <!-- Meta infinity loop symbol - icon only, no text -->
  <g>
    <!-- Outer loop -->
    <path d="M 100 30 C 60 30, 30 60, 30 100 C 30 140, 60 170, 100 170 C 140 170, 170 140, 170 100 C 170 60, 140 30, 100 30 Z" 
          fill="#0081FB" opacity="0.1"/>
    <!-- Middle loop -->
    <path d="M 100 45 C 70 45, 45 70, 45 100 C 45 130, 70 155, 100 155 C 130 155, 155 130, 155 100 C 155 70, 130 45, 100 45 Z" 
          fill="#0081FB"/>
    <!-- Inner white loop -->
    <path d="M 100 60 C 80 60, 65 75, 65 95 C 65 115, 80 130, 100 130 C 120 130, 135 115, 135 95 C 135 75, 120 60, 100 60 Z" 
          fill="white"/>
    <!-- Center blue dot -->
    <path d="M 100 75 C 87 75, 75 87, 75 100 C 75 113, 87 125, 100 125 C 113 125, 125 113, 125 100 C 125 87, 113 75, 100 75 Z" 
          fill="#0081FB"/>
  </g>
</svg>
