<svg width="24" height="24" viewBox="0 0 24 24" fill="none" xmlns="http://www.w3.org/2000/svg">
  <!-- OpenAI logo - reddish-orange starburst/sun design -->
  <g>
    <!-- Central starburst with radiating rays -->
    <path d="M12 12 M12 3 L13 5 L14.5 4 L15.5 5.5 L17 5 L17.5 7 L19 7.5 L18 9 L19.5 10 L18.5 11.5 L20 12 L18.5 12.5 L19.5 14 L18 15 L19 16.5 L17.5 17 L17 18.5 L15.5 19 L14.5 17.5 L13 19 L12 17 L11 19 L9.5 17.5 L8.5 19 L7 18.5 L6.5 17 L5 16.5 L6 15 L4.5 14 L5.5 12.5 L4 12 L5.5 11.5 L4.5 10 L6 9 L5 7.5 L6.5 7 L7 5.5 L8.5 5 L9.5 6.5 L11 5 Z" fill="#D97757" stroke="#D97757" stroke-width="0.3"/>
  </g>
</svg>

